<?xml version="1.0" standalone="no"?>
<!DOCTYPE svg PUBLIC "-//W3C//DTD SVG 20010904//EN"
 "http://www.w3.org/TR/2001/REC-SVG-20010904/DTD/svg10.dtd">
<svg version="1.0" xmlns="http://www.w3.org/2000/svg"
 width="177.000000pt" height="177.000000pt" viewBox="0 0 177.000000 177.000000"
 preserveAspectRatio="xMidYMid meet">
<metadata>
Created by potrace 1.11, written by Peter Selinger 2001-2013
</metadata>
<g transform="translate(0.000000,177.000000) scale(0.100000,-0.100000)"
fill="#000000" stroke="none">
<path d="M837 1409 c-14 -8 -18 -21 -16 -48 3 -44 -5 -61 -32 -61 -10 0 -19
-4 -19 -10 0 -5 -13 -10 -29 -10 -27 0 -30 3 -33 36 -5 65 -69 73 -76 10 -2
-14 -4 -26 -6 -26 -1 0 -29 13 -62 29 -163 78 -266 82 -247 10 9 -32 103 -128
186 -189 42 -30 84 -70 94 -88 18 -33 18 -34 -4 -50 -12 -9 -52 -41 -90 -70
-80 -61 -105 -96 -92 -129 5 -13 14 -23 21 -24 37 -3 89 4 141 18 32 9 61 13
64 9 4 -4 -3 -9 -15 -13 -12 -3 -22 -9 -22 -14 0 -14 33 -27 58 -23 46 8 59
21 56 56 l-3 33 10 -35 c6 -19 16 -45 22 -58 6 -13 10 -37 9 -53 -2 -24 1 -29
21 -29 26 0 67 38 67 63 0 9 5 19 10 22 6 4 10 3 9 -2 -4 -22 4 -35 32 -52 30
-18 69 -18 69 1 0 5 4 7 8 4 4 -2 14 -1 21 3 10 7 10 12 1 28 -9 13 -10 35 -6
66 7 48 25 65 27 25 1 -35 9 -72 17 -79 6 -7 67 -13 99 -10 14 1 6 31 -9 31
-12 0 -38 26 -38 38 0 5 33 1 73 -10 204 -55 235 18 62 144 -44 33 -91 67
-104 76 l-24 18 89 64 c103 74 210 173 230 213 11 20 12 32 4 47 -22 41 -118
21 -280 -59 -34 -17 -66 -31 -71 -31 -5 0 -6 12 -3 28 5 31 -3 47 -31 55 -30
10 -49 -8 -49 -46 l0 -34 -30 13 c-28 12 -31 16 -28 53 5 61 -32 88 -81 60z
m-367 -70 c41 -11 96 -30 122 -41 l49 -21 -31 -18 c-16 -10 -30 -24 -30 -31 0
-7 -4 -19 -9 -27 -7 -10 -22 -4 -71 29 -71 48 -140 108 -140 121 0 14 29 11
110 -12z m900 13 c0 -26 -232 -198 -251 -186 -5 3 -9 11 -9 18 0 7 -11 29 -24
48 l-24 36 67 25 c135 51 170 61 224 66 9 0 17 -3 17 -7z m-154 -438 c35 -35
64 -69 64 -75 0 -15 -50 -3 -137 33 -67 28 -72 31 -68 56 3 15 7 41 9 57 2 17
5 31 5 33 2 8 68 -46 127 -104z m-590 -7 c-1 -17 -16 -27 -71 -49 -71 -27
-105 -34 -105 -20 1 11 60 74 115 122 l50 43 6 -37 c3 -21 6 -48 5 -59z m240
-67 c1 -33 -2 -60 -6 -60 -4 0 -8 27 -9 60 -1 33 2 60 6 60 5 0 9 -27 9 -60z"/>
<path d="M119 556 c0 -14 -1 -46 -1 -71 0 -68 1 -75 12 -75 6 0 10 30 11 68
l1 67 22 -64 c22 -63 42 -86 50 -59 3 7 14 38 25 68 l21 55 -1 -55 c-1 -76 0
-80 11 -80 6 0 10 35 10 86 0 73 -2 85 -16 82 -9 -2 -23 -21 -31 -43 -36 -98
-33 -97 -58 -25 -23 69 -54 95 -56 46z"/>
<path d="M529 573 c-1 -5 0 -16 1 -26 1 -16 -3 -18 -27 -13 -15 3 -34 2 -41
-2 -22 -15 -30 -64 -15 -94 12 -24 18 -27 58 -26 l45 2 0 83 c0 49 -4 83 -10
83 -5 0 -11 -3 -11 -7z m-11 -70 c5 -10 8 -25 7 -33 -1 -8 -3 -21 -3 -28 -1
-8 -12 -12 -29 -10 -30 3 -39 23 -29 64 8 28 41 33 54 7z"/>
<path d="M326 517 c-24 -25 -26 -66 -3 -94 10 -14 45 -17 71 -7 17 7 22 34 6
34 -5 0 -10 -5 -10 -11 0 -6 -12 -9 -27 -7 -46 5 -35 33 12 33 47 0 58 22 26
54 -27 27 -46 26 -75 -2z m62 -20 c3 -13 -3 -17 -27 -17 -33 0 -39 8 -19 28
17 17 42 11 46 -11z"/>
<path d="M659 529 c-1 -8 -2 -27 -3 -44 -2 -39 -12 -55 -37 -55 -20 0 -23 14
-19 74 1 19 -2 27 -11 24 -11 -4 -14 -25 -10 -84 1 -23 46 -50 56 -33 4 5 15
7 25 4 17 -5 18 0 17 54 -2 53 -15 96 -18 60z"/>
<path d="M746 531 c-3 -5 -14 -7 -24 -4 -14 3 -17 -1 -16 -24 1 -15 3 -43 3
-60 1 -50 21 -39 21 11 0 44 19 74 40 61 5 -3 10 -28 10 -56 0 -27 5 -49 10
-49 6 0 10 20 10 44 0 27 6 48 15 56 23 19 36 0 38 -54 0 -26 5 -45 11 -43 10
3 11 16 7 89 -1 31 -34 47 -57 27 -11 -9 -18 -9 -26 -1 -14 14 -35 15 -42 3z"/>
<path d="M928 533 c-20 -5 -32 -33 -15 -33 7 0 18 5 24 11 14 14 46 4 41 -13
-2 -6 -15 -13 -29 -15 -43 -6 -50 -12 -47 -40 3 -27 6 -28 56 -29 29 0 55 3
58 8 3 4 0 8 -5 8 -6 0 -11 20 -11 45 0 34 -5 47 -19 55 -20 10 -25 11 -53 3z
m50 -81 c-4 -22 -58 -30 -58 -8 0 15 10 21 42 23 13 1 18 -4 16 -15z"/>
<path d="M1052 524 c-47 -32 -19 -120 36 -112 24 3 28 1 24 -14 -5 -19 -46
-25 -57 -8 -12 20 -26 10 -15 -10 14 -26 61 -27 83 -2 19 21 24 146 7 157 -5
3 -10 1 -10 -6 0 -10 -3 -10 -12 -1 -16 16 -29 15 -56 -4z m59 -30 c14 -37 3
-64 -26 -64 -29 0 -43 37 -25 69 15 29 38 26 51 -5z"/>
<path d="M1179 517 c-16 -17 -19 -30 -15 -56 3 -19 11 -38 18 -43 21 -13 65
-9 78 7 16 19 5 34 -12 17 -18 -18 -46 -14 -58 8 -10 19 -8 20 34 16 51 -5 65
11 38 44 -25 30 -58 33 -83 7z m59 -9 c19 -19 14 -28 -18 -28 -41 0 -40 33 1
39 3 1 10 -4 17 -11z"/>
<path d="M1298 475 c-2 -47 0 -65 10 -65 8 0 12 15 12 44 0 26 6 48 15 56 25
20 45 -5 45 -56 0 -24 5 -44 10 -44 17 0 12 97 -6 114 -18 18 -40 21 -49 6 -5
-8 -11 -8 -20 0 -11 9 -14 -2 -17 -55z"/>
<path d="M1440 520 c-40 -40 -15 -110 41 -110 26 0 56 35 39 45 -6 4 -13 -1
-16 -9 -9 -24 -51 -20 -57 5 -7 26 8 69 24 69 7 0 21 -7 31 -17 25 -22 36 -8
13 17 -23 25 -50 25 -75 0z"/>
<path d="M1540 534 c0 -4 10 -37 22 -72 l21 -64 -24 -19 c-16 -12 -19 -19 -9
-19 8 0 20 4 27 8 17 11 73 161 62 168 -5 3 -11 -1 -14 -8 -3 -7 -11 -31 -19
-53 l-13 -40 -13 43 c-12 37 -40 78 -40 56z"/>
</g>
</svg>
